<svg xmlns="http://www.w3.org/2000/svg" viewBox="0 0 48 48" width="24" height="24">
  <radialGradient id="insta-gradient" cx="19%" cy="83%" r="108%">
    <stop offset="0%" stop-color="#FED576" />
    <stop offset="10%" stop-color="#F47133" />
    <stop offset="30%" stop-color="#BC3081" />
    <stop offset="70%" stop-color="#4C63D2" />
  </radialGradient>
  <path d="M 16 4 C 9.3844276 4 4 9.3844276 4 16 L 4 32 C 4 38.615572 9.3844276 44 16 44 L 32 44 C 38.615572 44 44 38.615572 44 32 L 44 16 C 44 9.3844276 38.615572 4 32 4 L 16 4 z M 16 8 L 32 8 C 36.411828 8 40 11.588172 40 16 L 40 32 C 40 36.411828 36.411828 40 32 40 L 16 40 C 11.588172 40 8 36.411828 8 32 L 8 16 C 8 11.588172 11.588172 8 16 8 z M 34 12 C 32.895 12 32 12.895 32 14 C 32 15.105 32.895 16 34 16 C 35.105 16 36 15.105 36 14 C 36 12.895 35.105 12 34 12 z M 24 14 C 18.495178 14 14 18.495178 14 24 C 14 29.504822 18.495178 34 24 34 C 29.504822 34 34 29.504822 34 24 C 34 18.495178 29.504822 14 24 14 z M 24 18 C 27.325562 18 30 20.674438 30 24 C 30 27.325562 27.325562 30 24 30 C 20.674438 30 18 27.325562 18 24 C 18 20.674438 20.674438 18 24 18 z" fill="url(#insta-gradient)" />
</svg>
