<svg xmlns="http://www.w3.org/2000/svg" viewBox="0 0 48 48" width="24" height="24">
  <path d="M44 12 C42.4 12.8 40.8 13.2 39 13.5 C40.8 12.4 42.2 10.7 42.8 8.6 C41.2 9.6 39.3 10.4 37.4 10.8 C35.8 9.1 33.6 8 31 8 C26.2 8 22.4 11.9 22.4 16.7 C22.4 17.4 22.5 18.1 22.6 18.7 C15.6 18.3 9.5 14.9 5.3 9.8 C4.5 11.1 4.1 12.6 4.1 14.2 C4.1 17.2 5.6 19.8 7.9 21.3 C6.5 21.3 5.1 20.9 3.9 20.2 C3.9 20.2 3.9 20.3 3.9 20.3 C3.9 24.5 6.8 28 10.7 28.8 C10 29 9.2 29.1 8.4 29.1 C7.9 29.1 7.3 29 6.8 28.9 C7.9 32.3 11 34.8 14.7 34.9 C11.9 37.2 8.2 38.5 4.3 38.5 C3.5 38.5 2.8 38.5 2 38.4 C5.7 40.8 10.2 42.2 15 42.2 C31 42.2 39.7 29.2 39.7 18 C39.7 17.6 39.7 17.3 39.7 16.9 C41.4 15.7 42.8 14.1 44 12.2 Z" fill="#1DA1F2" />
</svg>
